<svg id="图层_1" data-name="图层 1" xmlns="http://www.w3.org/2000/svg" viewBox="0 0 445.78 655.31"><defs><style>.cls-1{fill:#c9b8d9;}.cls-2{fill:#90aad8;}.cls-3{fill:#309bd4;}.cls-4{fill:#148fb6;}</style></defs><path class="cls-1" d="M98.35,298.68q5.63,3.52,7,21.1-11.25,25.31-11.25,83v1.41q0,23.21,4.22,23.2,0,.72-1.41,8.44,3.51,26.73,8.44,32.35,0,.71-2.81,4.21,3.51,0,7,19a1.25,1.25,0,0,1,1.41,1.4v1.41q0,2.12-12.66,8.44v2.81l-14.76,1.41q-15.48-9.84-15.47-26A333.94,333.94,0,0,1,54.76,388v-1.41A152.84,152.84,0,0,1,59,350.71a10.48,10.48,0,0,1-1.41-4.22H59c0-1.4-.48-2.1-1.41-2.1q7-44.31,24.61-44.3A90,90,0,0,1,98.35,298.68Z" transform="translate(-54.76 -5.48)"/><path class="cls-1" d="M75.15,88.45q4.21,1.41,4.22,2.81l2.81-1.41q15.45,0,23.2,21.8a1.25,1.25,0,0,1,1.41,1.41l-1.41,2.81,2.81,1.41-1.4,7q4.21,7.74,7,26h-1.41q3.51,6.33,4.93,24.61l-1.41,3.52q1.39,2.82,2.81,15.47a82.38,82.38,0,0,0-1.4,14.76,10.63,10.63,0,0,0,1.4,4.22q-3.52,24.61-6.33,24.61l1.41,2.81v1.41L111,246l1.4,3.51q-3.52,19.69-21.09,19.69H82.18q-5.64,0-8.44-18.28,0-1.4,5.63-16.17A11,11,0,0,0,78,230.48q2.81-11.23,2.81-11.95a1.24,1.24,0,0,0-1.4-1.41q1.39-17.56,2.81-17.58-1.43-2.1-2.81-14.06a10.78,10.78,0,0,1,1.4-4.22q0-2.81-2.81-11.95l1.41-7q0-8.44-19-52c-.94-1.4-1.4-4.92-1.4-10.54q3.51-5.62,9.14-5.63Q68.12,88.46,75.15,88.45Z" transform="translate(-54.76 -5.48)"/><path class="cls-2" d="M123,5.48q19,0,26,17.58Q163,45.56,177.8,85.64a10.7,10.7,0,0,0-1.4,4.21q2.1,0,8.44,24.61a10.67,10.67,0,0,1-4.22,1.41v1.41c3.74,0,5.62.94,5.62,2.81v2.81a1.24,1.24,0,0,1-1.4,1.41q4.91,12,4.92,14.76l-1.41,2.82c1.87.47,2.81,1.4,2.81,2.81v28.83l1.41,9.14c-1.88,3.75-2.81,6.57-2.81,8.43a12.62,12.62,0,0,1,1.4,5.63c-1.4,0-3,2.11-4.92,6.33l2.11,2.81q-6.33,20.4-9.14,20.39l1.41,2.81v4.22q-7,35.18-11.25,65.39H168l1.41,2.81v1.41q0,4.22-4.22,12.66l1.4,2.81v7.73a1.24,1.24,0,0,1-1.4,1.41,11,11,0,0,1,1.4,4.22l-1.4,2.81a11,11,0,0,1,1.4,4.22,11.13,11.13,0,0,1-4.92,1.41v4.22c.46,2.35,1.64,3.51,3.52,3.51a260.62,260.62,0,0,0-3.52,44.3v10.54a1.24,1.24,0,0,1-1.4,1.41l1.4,2.81v14.77c0,8,1.17,14.06,3.52,18.28a11.2,11.2,0,0,0-1.41,4.92l2.81,5.63-1.4,2.81a10.9,10.9,0,0,1,1.4,4.22h-1.4l1.4,2.81a10.8,10.8,0,0,1-1.4,4.22q7,62.6,15.47,90l-1.41,2.81,10.55,42.19-1.41,2.81L191.16,613l-1.4,2.81a10.07,10.07,0,0,1,1.4,5.63Q177.8,632.66,168,632.67q-17.58-12-17.58-14.07l1.41-2.81q-3.53,0-5.63-13.36L149,601q-5.64-19.69-5.63-24.61v-9.85l-2.81-4.92,1.4-2.81a18.84,18.84,0,0,1-3.51-11.25l2.11-2.81q-2.82,0-4.92-13.36a10.85,10.85,0,0,0,1.4-4.22l-4.22-2.81,1.41-7v-9.14L131.4,504a12.49,12.49,0,0,0,1.4-5.62L130,497l1.41-17.57v-4.22c-1.88-2.34-2.81-3.75-2.81-4.22v-6.33c.46-1.87,1.4-2.81,2.81-2.81q-4.22-16.87-4.22-24.61v-1.41a1.24,1.24,0,0,1,1.41-1.4l-1.41-2.82q0-1.4,2.81-11.25v-3.51c-1.88-2.34-2.81-3.75-2.81-4.22V397.12A240.39,240.39,0,0,1,130,362l-1.4-2.81q2.79-15.45,2.81-24.61L130,331.73q7-47.81,23.2-135l-1.4-2.81q2.1-9.84,4.22-9.85l-1.41-2.81A138.79,138.79,0,0,0,156,163.68l-1.41-2.81,1.41-2.81-2.82-9.14,1.41-2.82q-9.15-30.21-40.78-92.81A53.73,53.73,0,0,1,98.35,23.06V18.84Q109.59,5.49,123,5.48Z" transform="translate(-54.76 -5.48)"/><path class="cls-3" d="M213,274.07l2.81,1.41a10.07,10.07,0,0,1,5.63-1.41q11.23,5.64,11.25,16.88c0,2.81-1,6.33-2.81,10.54,0,1.88.46,2.82,1.4,2.82q-1.41,14.07-1.4,21.79v26a12.36,12.36,0,0,0,1.4,5.62,12.49,12.49,0,0,0-1.4,5.63q0,16.19,2.81,27.42a3.33,3.33,0,0,0-2.81,3.52l1.4,2.81-1.4,5.62a11,11,0,0,1,1.4,4.22l-1.4,2.82a181.78,181.78,0,0,1,4.21,24.61,1.24,1.24,0,0,0-1.4,1.4q4.22,0,6.33,24.61c.93,0,1.4,1,1.4,2.81q0,17.6-11.95,17.58H222.8q-19,0-19-28.83c-.95,0-1.88-4-2.81-11.95a1.24,1.24,0,0,1,1.4-1.41l-4.22-26h1.41l-4.22-34.45a12.44,12.44,0,0,0,1.41-5.63V369q-2.11-1.39-4.22-16.87l1.41-2.81a55.35,55.35,0,0,1-1.41-6.33,1.25,1.25,0,0,1,1.41-1.41l-1.41-9.84v-8.44Q192.57,274.09,213,274.07Z" transform="translate(-54.76 -5.48)"/><path class="cls-3" d="M214.37,39.23q24.6,0,33,20.39,4.23,0,9.85,41.48l-1.41,3.52a147,147,0,0,1,2.81,28.83v15.47a1.24,1.24,0,0,1-1.4,1.4l1.4,3.52v2.81q-3.53,8.44-5.62,8.44l1.4,2.81q-5.62,68.21-18.28,68.2l-7.73,1.41H222.8q-13.37-6.33-13.36-14.77,12-61.86,12-78v-8.44a10,10,0,0,1,1.4-5.62Q221.39,117.29,205.23,61V56.81A33.46,33.46,0,0,1,214.37,39.23Z" transform="translate(-54.76 -5.48)"/><path class="cls-4" d="M412.65,13.21q16.88,0,28.83,24.61Q464,48.37,490.7,127.12q5.61,17.58,9.84,62.58l-1.41,8.44,1.41,6.32-1.41,2.82a1.24,1.24,0,0,0,1.41,1.4q-2.82,34.45-11.25,47.81-30.24,33.06-38,33.05-2.82,6.33-52,38,0,2.82-24.61,24.61Q350.06,383.07,343,447.74V485q0,7.74,4.22,32.34l-1.41,2.82q4.22,37.27,30.24,108.28c1.86.46,2.81,1.4,2.81,2.81V646c0,1.4-1.41,2.81-4.22,4.21l1.41,2.82q0,2.1-11.25,7.73-21.1,0-28.83-17.58l-2.81-5.62a11.45,11.45,0,0,0,1.4-4.92l-16.17-46.41a1.24,1.24,0,0,1,1.41-1.41Q310,547.58,310,457.59q0-5.62,2.81-30.24l-1.4-2.81q11.24-57.65,21.8-72.42,11.24-19,22.5-30.23,15.45-23.2,23.2-23.21,3.51-6.33,3.51-10.54-3.53-.7-13.36-27.43-19.68-31.63-42.18-39.37H314.21q-9.15,17.58-16.17,61.17h-1.41a1.24,1.24,0,0,0,1.41,1.41l-1.41,7c0,1.88.46,2.81,1.41,2.81l-1.41,7.73v14.07q-7.74,16.19-19,16.17-20.4,0-20.39-21.8,0-7,4.92-17.58a1.24,1.24,0,0,0-1.41-1.4l1.41-7V279.7c1.87,0,2.81-.46,2.81-1.41a1.24,1.24,0,0,0-1.4-1.4q1.4-44.31,42.89-143.44,13.33-26,39.37-61.17h1.41l2.81,1.4q0-17.57,53.44-56.25C409.59,15.56,412.65,14.16,412.65,13.21ZM407,72.28l-13.36,7c0,1.4-1.4,3-4.21,4.92A1.25,1.25,0,0,0,388,82.82q0,4.23-20.39,21.8-10.54,12-34.45,63.28a11,11,0,0,1,1.4,4.22h-1.4q0,4.92,19.68,11.95,40.77,33.75,52.74,54.85l9.84,27.42q3.51,0,24.61-15.47,11.94-7,20.39-21.8,0-1.4,1.41-35.15A53.27,53.27,0,0,0,459.05,177c0-1.4.47-2.11,1.41-2.11Q437.26,72.29,407,72.28Z" transform="translate(-54.76 -5.48)"/></svg>